<?xml version="1.0" ?><!DOCTYPE svg  PUBLIC '-//W3C//DTD SVG 1.1//EN'  'http://www.w3.org/Graphics/SVG/1.1/DTD/svg11.dtd'><svg enable-background="new 0 0 512 512" height="512px" id="Layer_1" version="1.1" viewBox="0 0 512 512" width="512px" xml:space="preserve" xmlns="http://www.w3.org/2000/svg" xmlns:xlink="http://www.w3.org/1999/xlink"><g><g><path clip-rule="evenodd" d="M410.654,88.298c-0.004,0-0.004,0-0.004,0     c-37.611-37.608-89.053-58.324-144.833-58.314c-63.583,0.004-127.221,27.195-174.613,74.601     C43.799,151.982,16.603,215.63,16.597,279.203c0,55.785,20.724,107.215,58.341,144.824     c37.617,37.623,89.054,58.34,144.834,58.328c63.567,0,127.211-27.189,174.602-74.602     C486.927,315.207,494.229,171.898,410.654,88.298z" fill="#6B8DA8" fill-rule="evenodd"/><path d="M375.082,128.054c-3.594-3.557-8.544-5.429-13.574-5.164l-238.79,12.82     c-9.507,0.512-16.956,8.371-16.956,17.891v217.956c0,4.946,2.043,9.674,5.654,13.061c3.328,3.129,7.719,4.855,12.263,4.855     c0.375,0,0.75-0.012,1.124-0.035l229.174-14.422c9.133-0.574,16.366-7.943,16.771-17.086l9.618-216.354     C380.592,136.524,378.67,131.613,375.082,128.054z M338.614,150.76l-96.403,111.984L141.908,162.82L338.614,150.76z      M335.664,340.262l-194.068,12.216V205.859l90.639,90.304c2.883,2.872,6.784,4.477,10.837,4.477c0.194,0,0.391-0.003,0.585-0.011     c4.264-0.165,8.268-2.094,11.053-5.328l87.895-102.099l-2.721,52.113L335.664,340.262z" fill="#FFFFFF"/></g></g></svg>